<?xml version="1.0" standalone="no"?>
<!DOCTYPE svg PUBLIC "-//W3C//DTD SVG 20010904//EN"
 "http://www.w3.org/TR/2001/REC-SVG-20010904/DTD/svg10.dtd">
<svg version="1.0" xmlns="http://www.w3.org/2000/svg"
 width="882.000000pt" height="758.000000pt" viewBox="0 0 882.000000 758.000000"
 preserveAspectRatio="xMidYMid meet">
<metadata>
Created by potrace 1.16, written by Peter Selinger 2001-2019
</metadata>
<g transform="translate(0.000000,758.000000) scale(0.100000,-0.100000)"
fill="#000000" stroke="none">
<path d="M4241 5040 c-212 -56 -338 -227 -291 -394 21 -77 108 -156 170 -156
33 0 19 21 -24 35 -151 52 -171 267 -36 389 87 79 210 119 365 119 154 0 275
-33 406 -109 122 -72 233 -192 265 -287 24 -72 16 -163 -19 -216 -35 -53 -67
-73 -127 -79 -67 -6 -131 26 -250 123 -112 92 -164 118 -236 117 -84 -1 -164
-56 -164 -113 0 -39 17 -36 34 6 20 47 68 75 130 75 66 0 114 -25 217 -110
105 -88 186 -130 248 -130 153 1 246 157 196 326 -38 130 -195 282 -372 360
-146 65 -361 83 -512 44z"/>
<path d="M1206 4649 c19 -100 79 -208 144 -259 43 -34 128 -74 180 -84 19 -4
44 -10 54 -13 17 -5 18 -1 14 33 -9 60 -46 150 -82 197 -61 80 -165 139 -272
154 l-44 6 6 -34z"/>
<path d="M1888 4656 c-143 -50 -209 -118 -259 -264 -10 -30 -19 -65 -19 -77 0
-21 3 -22 43 -14 177 33 295 138 337 299 6 25 13 53 16 63 8 25 -35 22 -118
-7z"/>
<path d="M3485 4203 c-318 -21 -638 -97 -840 -201 -84 -43 -96 -47 -187 -52
l-96 -5 367 -600 368 -599 92 -85 91 -84 153 51 c291 97 522 122 765 80 35 -5
65 -8 68 -5 3 2 -9 67 -26 143 -120 541 -277 1013 -412 1237 -78 130 -74 127
-192 125 -56 -1 -123 -3 -151 -5z m32 -341 c56 -29 78 -64 78 -123 0 -130
-187 -248 -374 -237 -89 5 -133 25 -168 78 -69 101 39 242 226 296 68 20 186
12 238 -14z"/>
<path d="M6816 2949 c19 -100 79 -208 144 -259 49 -39 133 -76 200 -88 l52
-10 -5 37 c-8 57 -46 148 -81 194 -61 80 -165 139 -272 154 l-44 6 6 -34z"/>
<path d="M7498 2956 c-143 -50 -209 -118 -259 -264 -10 -30 -19 -65 -19 -77 0
-21 3 -22 43 -14 177 33 295 138 337 299 6 25 13 53 16 63 8 25 -35 22 -118
-7z"/>
<path d="M4132 1835 l3 -90 32 -15 33 -15 0 -425 c0 -369 2 -429 16 -448 l15
-22 -445 0 c-291 0 -446 -3 -446 -10 0 -7 393 -10 1160 -10 767 0 1160 3 1160
10 0 7 -160 10 -461 10 l-460 0 15 22 c14 19 16 79 16 450 0 409 1 428 18 428
39 0 52 31 52 121 l0 84 -355 0 -356 0 3 -90z"/>
</g>
</svg>
